inDegrees=no
num_controls=7
num_derivatives=13
num_iterations=114
num_multipliers=7
num_parameters=0
num_slacks=7
num_states=26
objective=5.013686
objective_accelerations=0.366710
objective_balance=0.022483
objective_effort=0.175132
objective_height=4.404166
objective_ligament=0.045196
solver_duration=1277.478137
status=Solve_Succeeded
success=true
DataType=double
version=3
OpenSimVersion=4.4-2022-07-23-0e9fedc
endheader
time	/jointset/ground_pelvis/pelvis_tilt/value	/jointset/ground_pelvis/pelvis_tx/value	/jointset/ground_pelvis/pelvis_ty/value	/jointset/hip_l/hip_flexion_l/value	/jointset/hip_l/hip_adduction_l/value	/jointset/hip_l/hip_rotation_l/value	/jointset/back/lumbar_extension/value	/jointset/patellofemoral_l/patellar_flexion_l/value	/jointset/knee_l/knee_flexion_l/value	/jointset/knee_l/knee_adduction_l/value	/jointset/knee_l/knee_rotation_l/value	/jointset/ankle_l/ankle_angle_l/value	/jointset/subtalar_l/subtalar_angle_l/value	/jointset/ground_pelvis/pelvis_tilt/speed	/jointset/ground_pelvis/pelvis_tx/speed	/jointset/ground_pelvis/pelvis_ty/speed	/jointset/hip_l/hip_flexion_l/speed	/jointset/hip_l/hip_adduction_l/speed	/jointset/hip_l/hip_rotation_l/speed	/jointset/back/lumbar_extension/speed	/jointset/patellofemoral_l/patellar_flexion_l/speed	/jointset/knee_l/knee_flexion_l/speed	/jointset/knee_l/knee_adduction_l/speed	/jointset/knee_l/knee_rotation_l/speed	/jointset/ankle_l/ankle_angle_l/speed	/jointset/subtalar_l/subtalar_angle_l/speed	/forceset/tau_hip_flexion_l	/forceset/tau_hip_adduction_l	/forceset/tau_hip_rotation_l	/forceset/tau_knee_flexion_l	/forceset/tau_ankle_angle_l	/forceset/tau_subtalar_angle_l	/forceset/tau_lumbar_extension	lambda_cid13_p0	lambda_cid13_p1	lambda_cid13_p2	lambda_cid13_p3	lambda_cid13_p4	lambda_cid13_p5	lambda_cid14_p0	/jointset/ground_pelvis/pelvis_tilt/accel	/jointset/ground_pelvis/pelvis_tx/accel	/jointset/ground_pelvis/pelvis_ty/accel	/jointset/hip_l/hip_flexion_l/accel	/jointset/hip_l/hip_adduction_l/accel	/jointset/hip_l/hip_rotation_l/accel	/jointset/back/lumbar_extension/accel	/jointset/patellofemoral_l/patellar_flexion_l/accel	/jointset/knee_l/knee_flexion_l/accel	/jointset/knee_l/knee_adduction_l/accel	/jointset/knee_l/knee_rotation_l/accel	/jointset/ankle_l/ankle_angle_l/accel	/jointset/subtalar_l/subtalar_angle_l/accel	gamma_cid13_p0	gamma_cid13_p1	gamma_cid13_p2	gamma_cid13_p3	gamma_cid13_p4	gamma_cid13_p5	gamma_cid14_p0
1	-0.1901601699510607	0.0735878962020409	0.7143344081062599	0.9920657763788737	-0.502454268367665	-0.08046012898072441	-0.2617907528738645	1.155970090396424	1.155970090396766	-0.1622445448487077	-0.1745266215232328	0.4362627323472854	0.08797110139278635	-0.01529690491031161	0.01102129812804276	-0.0004144485396623301	-0.00154426542962478	-0.003412795240948278	0.001231108368904405	-8.084814615057207e-05	0.0006785403017092264	0.0006785403017092211	-0.00545064607490747	-1.352627209272423e-05	0.01632414347980713	0.007504363894101135	-0.1235220399887852	0.06927061423676331	-0.01039500236685426	-0.3191993454139414	-0.09407362613616037	0.02414003612053692	0.1449261172038989	-66.83760184218431	-1.15665198186967	2.561778895071424	14.43161043801283	-600.1145364730845	-67.55017446538774	-9.953322144610073	0.5556522006262931	-0.08450598355364713	1.127801040717552	-3.373245321058249	0.4003736753889846	-2.022491487956184	-0.01580631972638026	-4.288862461808414	-4.288862461808415	-0.0427056138573839	-0.008402044928803908	-1.962311022995124	-0.8802903520140053	2.333283221587765e-09	1.179008973262407e-08	-8.063086048203462e-09	2.630837806107169e-09	-6.827129898353057e-10	1.963448343479858e-08	1.085115155686256e-09
1.01	-0.1902859561563237	0.07369387633248763	0.7143865182584259	0.9918827086722164	-0.5024680129807939	-0.08054979581446758	-0.2617916869626709	1.155762898692884	1.155762898693245	-0.1622994741782439	-0.1745268972641175	0.4363281081222458	0.08800295315057158	-0.009861285217346015	0.01017573478097339	0.01083360081333254	-0.03506309799941464	0.0006656532387331186	-0.0191614454538003	-0.0001064065588536795	-0.0421111831339711	-0.04211118313397148	-0.005532512574886864	-3.974496588352495e-05	-0.003246892124056574	-0.001129125196377271	-0.1235080323795079	0.0693092352987786	-0.01039214373796572	-0.3189932934216297	-0.09416245924631317	0.02414333576970603	0.1449047406167117	-66.85392865191621	-1.159375517515834	2.566952852067952	14.37586872534335	-599.968354288888	-67.53328603203458	-9.962706052949088	0.5373743067668381	-0.08442976000222326	1.122873777844286	-3.340275873260648	0.4118454997928231	-2.047185158693671	0.004003855292359026	-4.273171985993003	-4.273171985992906	0.009478675170292244	0.0005538298853905601	-1.954185100383455	-0.8541481361677754	-1.798352157582368e-09	5.879212216398893e-09	1.750412852814676e-08	3.625912812571024e-09	-6.842156837943695e-09	1.201831747413685e-08	-3.045198537587603e-09
1.02	-0.1903574146740569	0.07379143117952038	0.714551022283172	0.9913646379101829	-0.5024409200960244	-0.08084329775228673	-0.2617928897439251	1.155127980814685	1.155127980815043	-0.1623551410040746	-0.1745273780695132	0.4361978364869569	0.08794861602772969	-0.004431367398923924	0.009336241445252007	0.02206432597664787	-0.0685448765020098	0.004754704339832743	-0.03953591244716217	-0.000134586678129297	-0.08486669463147035	-0.08486669463147049	-0.005598145345337055	-5.453920007935349e-05	-0.02280533857998955	-0.009733412230980471	-0.1234940247702134	0.06934785636076939	-0.01038928510852349	-0.3187872414293476	-0.09425129235648499	0.02414663541880736	0.1448833640295343	-66.87949392750927	-1.162013326977952	2.573862173532294	14.35208572211496	-599.9544140324209	-67.51676729713293	-9.99025324782612	0.5545118257174689	-0.08329198128399823	1.124336202781658	-3.3658345076193	0.4024941996726684	-2.018874122087551	-0.01633066104014875	-4.282020074172268	-4.282020074172147	-0.03945886795155541	-0.006117153009664372	-1.959793193408922	-0.8744499408388545	-6.610733695935208e-09	-2.942286871288855e-09	4.459125883604137e-08	4.089783994221815e-09	-1.330700906765288e-08	1.174313719494713e-09	-7.563194661019528e-09
1.03	-0.1903746038427046	0.07388061546486469	0.7148277052544683	0.990511996291541	-0.5023728944175551	-0.08134038327864385	-0.2617944278505709	1.154065717902585	1.154065717902416	-0.1624114562893418	-0.1745279930933452	0.4358720238791942	0.08780838081427482	0.0009922995067597321	0.008501010692333704	0.03326522723359459	-0.1019708810459536	0.008851408663280628	-0.05987294573199903	-0.0001773646653986691	-0.12757619398111	-0.127576193981108	-0.005667417743687576	-7.132097762468803e-05	-0.04235694271020803	-0.01830837361827751	-0.1233598898585583	0.0693232476827132	-0.01040033724973507	-0.318392703604773	-0.09422181187768662	0.02416332403611531	0.1447608836189335	-66.85019814551778	-1.18822681059703	2.593845879387324	14.29499844537773	-599.678987744698	-67.51038797943939	-10.03594826458016	0.5361083345611244	-0.08357844954252128	1.116906935732876	-3.32909952628424	0.4133957639632057	-2.039890163460211	0.001099129714834215	-4.263958350422267	-4.263958350421974	0.008959877614433034	0.0001267126966805529	-1.952808779001802	-0.8482373020905943	-1.143006162366746e-08	-1.179348617909359e-08	7.169389848813543e-08	4.548234728680632e-09	-1.977497770941921e-08	-9.702627155494184e-09	-1.208514672761633e-08
1.04	-0.1903375934999972	0.07396145947723072	0.71521618520805	0.9893254714077439	-0.5022638742528035	-0.08204059358419727	-0.2617965236371013	1.152576651299984	1.152576651299258	-0.1624685400378344	-0.1745288588543047	0.4353507022788702	0.08758255237406185	0.006408534875169217	0.007668186849599989	0.04442372243398194	-0.1353215295299599	0.01295360159803394	-0.08016086828798913	-0.0002461227612180933	-0.1702274327332568	-0.1702274327332532	-0.005751838006400081	-0.0001046866422123422	-0.06190713708737404	-0.02685205758219544	-0.1232257549469477	0.06929863900463497	-0.01041138939018048	-0.3179981657802412	-0.09419233139890003	0.02418001265336111	0.1446384032082859	-66.8301451298661	-1.214310085327859	2.615507907324806	14.26979952717989	-599.5356099228627	-67.50451883741937	-10.09976341269339	0.5530255182625132	-0.082810599247073	1.115854991469825	-3.350763295631755	0.4035919219339635	-2.009051976317883	-0.02152668274753142	-4.270367954673875	-4.270367954673876	-0.04248844082389808	-0.009433930417513179	-1.959511242798419	-0.8681944561626769	-1.599308669685702e-08	-1.800924886819909e-08	9.569449543152864e-08	6.218572808977237e-09	-2.562475559997621e-08	-1.655632893169368e-08	-1.618437385035702e-08
1.05	-0.1902466116176536	0.07403406277062222	0.7157159880585446	0.9878059353944474	-0.5021137827598104	-0.0829433066651776	-0.2617989334089049	1.150661426820816	1.150661426820705	-0.1625265737411205	-0.1745300409677472	0.4346340153541493	0.08727161588941713	0.0117707702610758	0.006860436353986762	0.05552476810996684	-0.1685608834987324	0.0170676226335904	-0.1003651542506909	-0.0001891633626786716	-0.2128013155995076	-0.2128013155995051	-0.005856844981034895	-0.0001272619215742482	-0.08141718641520609	-0.03531325959617365	-0.1232242573058734	0.06929907851409636	-0.01042618202229224	-0.3172477907798308	-0.09420694749228066	0.02423725556862907	0.1446632483190002	-66.80783938142999	-1.271035180999106	2.656487604179212	14.16209558188601	-599.2227411819941	-67.49480857638009	-10.18167592952294	0.5252607985463905	-0.07856099342277761	1.10541107267814	-3.306804637261212	0.415730408825836	-2.023643423695212	0.02630751268884937	-4.2484722329747	-4.248472232974944	0.005196930899803037	0.002024308923184902	-1.944794300352978	-0.8317963687090493	-2.054810230584212e-08	-2.414265416297026e-08	1.195981535402749e-07	7.926782368831266e-09	-3.145521502955792e-08	-2.328430448605604e-08	-2.02703908186022e-08
